<?xml version="1.0" encoding="UTF-8" standalone="no"?>
<svg width="394px" height="75px" viewBox="0 0 394 75" version="1.1" xmlns="http://www.w3.org/2000/svg" xmlns:xlink="http://www.w3.org/1999/xlink" xmlns:sketch="http://www.bohemiancoding.com/sketch/ns">
    <!-- Generator: Sketch 3.3.3 (12081) - http://www.bohemiancoding.com/sketch -->
    <title>openagency-white copy</title>
    <desc>Created with Sketch.</desc>
    <defs>
        <linearGradient x1="50%" y1="100%" x2="50%" y2="13.7915294%" id="linearGradient-1">
            <stop stop-color="#4FBBDD" offset="0%"></stop>
            <stop stop-color="#2077AD" offset="100%"></stop>
        </linearGradient>
        <linearGradient x1="53.6670206%" y1="0%" x2="53.6670208%" y2="84.0158233%" id="linearGradient-2">
            <stop stop-color="#A9D500" offset="0%"></stop>
            <stop stop-color="#3E9B00" offset="100%"></stop>
        </linearGradient>
    </defs>
    <g id="Page-1" stroke="none" stroke-width="1" fill="none" fill-rule="evenodd" sketch:type="MSPage">
        <g id="openagency-white-copy" sketch:type="MSArtboardGroup">
            <g id="blue-base" sketch:type="MSLayerGroup" transform="translate(2.900000, -20.500000)" stroke="url(#linearGradient-1)" stroke-width="7">
                <circle id="smaller" sketch:type="MSShapeGroup" cx="38.6" cy="38.9" r="25"></circle>
                <circle id="bigger" sketch:type="MSShapeGroup" cx="38.6" cy="38.9" r="38"></circle>
            </g>
            <g id="green-base" sketch:type="MSLayerGroup" transform="translate(2.900000, 19.000000)" stroke="url(#linearGradient-2)" stroke-width="7">
                <circle id="smaller" sketch:type="MSShapeGroup" cx="38.6" cy="38.9" r="25"></circle>
                <circle id="bigger" sketch:type="MSShapeGroup" cx="38.6" cy="38.9" r="38"></circle>
            </g>
            <g id="blue-int-1" sketch:type="MSLayerGroup" transform="translate(4.900000, 30.500000)" fill="#2A8B00">
                <path d="M51.6878712,12.0831365 C53.6874429,10.8329641 55.5208062,9.34168157 57.14725,7.65 L57.14725,7.65 C55.5208062,5.95831843 53.6874429,4.46703588 51.6878712,3.21686347 C49.8024268,5.07429441 47.5756608,6.58621767 45.1102064,7.65 C47.5756608,8.71378233 49.8024268,10.2257056 51.6878712,12.0831365 Z M21.5121288,12.0831365 C19.5125571,10.8329641 17.6791938,9.34168157 16.05275,7.65 C17.6791938,5.95831843 19.5125571,4.46703588 21.5121288,3.21686347 C23.3975732,5.07429441 25.6243392,6.58621767 28.0897936,7.65 C25.6243392,8.71378233 23.3975732,10.2257056 21.5121288,12.0831365 Z" id="Shape" sketch:type="MSShapeGroup"></path>
                <path d="M68.5576198,14.3773815 C70.2836067,12.296479 71.8102284,10.0442552 73.1081947,7.65 L73.1081947,7.65 C71.8102284,5.25574484 70.2836067,3.00352098 68.5576198,0.922618501 C67.5836135,3.31039656 66.3497743,5.56456616 64.8912293,7.65 C66.3497743,9.73543384 67.5836135,11.9896034 68.5576198,14.3773815 Z M4.64238022,14.3773815 C2.91639328,12.296479 1.38977162,10.0442552 0.0918053016,7.65 C1.38977162,5.25574484 2.91639328,3.00352098 4.64238022,0.922618501 C5.61638645,3.31039656 6.85022571,5.56456616 8.30877071,7.65 C6.85022571,9.73543384 5.61638645,11.9896034 4.64238022,14.3773815 Z" id="Shape" sketch:type="MSShapeGroup"></path>
            </g>
            <g id="green-int-1" sketch:type="MSLayerGroup" transform="translate(12.900000, 29.000000)"></g>
            <g id="blue-int-2" sketch:type="MSLayerGroup" transform="translate(13.900000, 21.500000)" fill="#2A8B00">
                <path d="M51.8576441,11.8680425 C53.1445839,9.78681961 54.1711658,7.52759608 54.8919376,5.13582419 L54.8919376,5.13582419 C52.994338,3.47795255 50.9444393,1.99004172 48.7659813,0.695832448 C48.3369519,3.10428919 47.5069055,5.37395408 46.3473534,7.43331582 C48.3344834,8.72203871 50.1806485,10.2096826 51.8576441,11.8680425 Z M3.34235594,11.8680425 C2.05541614,9.78681961 1.02883421,7.52759608 0.308062449,5.13582419 C2.20566199,3.47795255 4.25556067,1.99004172 6.43401637,0.695833812 C6.86304631,3.10429024 7.69309314,5.3739549 8.85264557,7.43331646 C6.865516,8.72203921 5.01935118,10.2096828 3.34235594,11.8680425 Z" id="Shape" sketch:type="MSShapeGroup"></path>
                <path d="M48.7659813,32.6041676 C50.9444379,31.3099593 52.9943373,29.822048 54.8919376,28.1641758 L54.8919376,28.1641758 C54.1711658,25.7724039 53.1445839,23.5131804 51.8576441,21.4319575 C50.1806485,23.0903174 48.3344834,24.5779613 46.3473534,25.8666842 C47.5069055,27.9260459 48.3369519,30.1957108 48.7659813,32.6041676 Z M6.43401866,32.6041676 C4.25556211,31.3099593 2.20566266,29.822048 0.308062449,28.1641758 C1.02883421,25.7724039 2.05541614,23.5131804 3.34235594,21.4319575 C5.01935145,23.0903174 6.86551661,24.5779613 8.85264656,25.8666842 C7.69309446,27.9260459 6.86304805,30.1957108 6.43401866,32.6041676 Z" id="Shape" sketch:type="MSShapeGroup"></path>
            </g>
            <path d="M126.442871,38.9155273 C126.442871,41.7716614 125.962407,44.2640681 125.001465,46.3928223 C124.040523,48.5215764 122.679208,50.1464788 120.91748,51.2675781 C119.155753,52.3886775 117.100435,52.9492188 114.751465,52.9492188 C112.45588,52.9492188 110.420582,52.3853409 108.645508,51.2575684 C106.870434,50.1297958 105.492437,48.5215762 104.511475,46.4328613 C103.530513,44.3441465 103.026693,41.925144 103,39.1757812 L103,37.0737305 C103,34.2709821 103.487137,31.7952581 104.461426,29.6464844 C105.435715,27.4977106 106.813712,25.8527889 108.595459,24.7116699 C110.377206,23.5705509 112.415841,23 114.711426,23 C117.047049,23 119.105704,23.5638778 120.887451,24.6916504 C122.669198,25.819423 124.040523,27.454335 125.001465,29.5964355 C125.962407,31.7385361 126.442871,34.2309428 126.442871,37.0737305 L126.442871,38.9155273 Z M122.619141,37.0336914 C122.619141,33.5769684 121.925137,30.924407 120.537109,29.0759277 C119.149082,27.2274484 117.207206,26.3032227 114.711426,26.3032227 C112.282377,26.3032227 110.370531,27.2274484 108.97583,29.0759277 C107.581129,30.924407 106.86377,33.490218 106.82373,36.7734375 L106.82373,38.9155273 C106.82373,42.265479 107.527744,44.898021 108.935791,46.8132324 C110.343838,48.7284438 112.282377,49.6860352 114.751465,49.6860352 C117.233899,49.6860352 119.155755,48.7818287 120.51709,46.9733887 C121.878425,45.1649486 122.579101,42.5724453 122.619141,39.1958008 L122.619141,37.0336914 Z M136.052246,41.1376953 L136.052246,52.5488281 L132.208496,52.5488281 L132.208496,23.4003906 L142.958984,23.4003906 C146.148779,23.4003906 148.647859,24.2145101 150.456299,25.8427734 C152.264739,27.4710368 153.168945,29.6264514 153.168945,32.309082 C153.168945,35.1385233 152.284758,37.3172938 150.516357,38.845459 C148.747957,40.3736242 146.215511,41.1376953 142.918945,41.1376953 L136.052246,41.1376953 Z M136.052246,37.9946289 L142.958984,37.9946289 C145.014333,37.9946289 146.589187,37.5108284 147.683594,36.5432129 C148.778,35.5755974 149.325195,34.1775808 149.325195,32.3491211 C149.325195,30.6140864 148.778,29.2260794 147.683594,28.1850586 C146.589187,27.1440378 145.087737,26.6035158 143.179199,26.5634766 L136.052246,26.5634766 L136.052246,37.9946289 Z M174.549805,39.0756836 L161.91748,39.0756836 L161.91748,49.4057617 L176.591797,49.4057617 L176.591797,52.5488281 L158.07373,52.5488281 L158.07373,23.4003906 L176.391602,23.4003906 L176.391602,26.5634766 L161.91748,26.5634766 L161.91748,35.9326172 L174.549805,35.9326172 L174.549805,39.0756836 Z M203.77832,52.5488281 L199.914551,52.5488281 L185.240234,30.0869141 L185.240234,52.5488281 L181.376465,52.5488281 L181.376465,23.4003906 L185.240234,23.4003906 L199.95459,45.9624023 L199.95459,23.4003906 L203.77832,23.4003906 L203.77832,52.5488281 Z M236.850586,44.9414062 L224.638672,44.9414062 L221.895996,52.5488281 L217.932129,52.5488281 L229.062988,23.4003906 L232.42627,23.4003906 L243.577148,52.5488281 L239.633301,52.5488281 L236.850586,44.9414062 Z M225.799805,41.7783203 L235.709473,41.7783203 L230.744629,28.1450195 L225.799805,41.7783203 Z M268.801758,48.7250977 C267.814123,50.1398183 266.436125,51.1975063 264.667725,51.8981934 C262.899324,52.5988805 260.840669,52.9492188 258.491699,52.9492188 C256.116036,52.9492188 254.007333,52.392014 252.165527,51.2775879 C250.323721,50.1631617 248.899012,48.578298 247.891357,46.5229492 C246.883703,44.4676004 246.366537,42.0853 246.339844,39.3759766 L246.339844,36.8334961 C246.339844,32.4425236 247.364166,29.0392373 249.412842,26.6235352 C251.461517,24.207833 254.340965,23 258.05127,23 C261.094253,23 263.543285,23.7774174 265.398438,25.3322754 C267.25359,26.8871334 268.388019,29.0925964 268.801758,31.9487305 L264.958008,31.9487305 C264.237301,28.0916148 261.941751,26.1630859 258.071289,26.1630859 C255.49543,26.1630859 253.543545,27.0672924 252.215576,28.8757324 C250.887607,30.6841725 250.21696,33.3033683 250.203613,36.7333984 L250.203613,39.1157227 C250.203613,42.3855958 250.951002,44.9847723 252.445801,46.9133301 C253.9406,48.8418879 255.962552,49.8061523 258.511719,49.8061523 C259.953132,49.8061523 261.21435,49.6459977 262.29541,49.3256836 C263.37647,49.0053695 264.270667,48.4648476 264.978027,47.7041016 L264.978027,41.1577148 L258.231445,41.1577148 L258.231445,38.034668 L268.801758,38.034668 L268.801758,48.7250977 Z M291.684082,39.0756836 L279.051758,39.0756836 L279.051758,49.4057617 L293.726074,49.4057617 L293.726074,52.5488281 L275.208008,52.5488281 L275.208008,23.4003906 L293.525879,23.4003906 L293.525879,26.5634766 L279.051758,26.5634766 L279.051758,35.9326172 L291.684082,35.9326172 L291.684082,39.0756836 Z M320.912598,52.5488281 L317.048828,52.5488281 L302.374512,30.0869141 L302.374512,52.5488281 L298.510742,52.5488281 L298.510742,23.4003906 L302.374512,23.4003906 L317.088867,45.9624023 L317.088867,23.4003906 L320.912598,23.4003906 L320.912598,52.5488281 Z M349.180176,43.2998047 C348.819822,46.3828279 347.682057,48.7617918 345.766846,50.4367676 C343.851634,52.1117434 341.305843,52.9492188 338.129395,52.9492188 C334.686018,52.9492188 331.926687,51.7146933 329.851318,49.2456055 C327.77595,46.7765176 326.738281,43.473328 326.738281,39.3359375 L326.738281,36.5332031 C326.738281,33.8238797 327.222082,31.4415793 328.189697,29.3862305 C329.157313,27.3308817 330.528637,25.7526911 332.303711,24.6516113 C334.078785,23.5505316 336.134103,23 338.469727,23 C341.566096,23 344.048493,23.8641678 345.916992,25.5925293 C347.785491,27.3208908 348.873208,29.7132009 349.180176,32.7695312 L345.316406,32.7695312 C344.982746,30.447254 344.258713,28.7656302 343.144287,27.7246094 C342.029861,26.6835885 340.47169,26.1630859 338.469727,26.1630859 C336.013985,26.1630859 334.088793,27.0706289 332.694092,28.8857422 C331.299391,30.7008554 330.602051,33.2833491 330.602051,36.6333008 L330.602051,39.4560547 C330.602051,42.6191564 331.262689,45.134919 332.583984,47.003418 C333.90528,48.8719169 335.753732,49.8061523 338.129395,49.8061523 C340.264822,49.8061523 341.90307,49.3223518 343.044189,48.3547363 C344.185308,47.3871208 344.942706,45.7021604 345.316406,43.2998047 L349.180176,43.2998047 Z M363.313965,38.034668 L370.921387,23.4003906 L375.285645,23.4003906 L365.23584,41.6782227 L365.23584,52.5488281 L361.39209,52.5488281 L361.39209,41.6782227 L351.342285,23.4003906 L355.746582,23.4003906 L363.313965,38.034668 Z" id="OPEN-AGENCY" fill="#FFFFFF" sketch:type="MSShapeGroup"></path>
            <g id="green-int-2" sketch:type="MSLayerGroup" transform="translate(12.900000, 29.000000)"></g>
        </g>
    </g>
</svg>