<?xml version="1.0" encoding="UTF-8" standalone="no"?>
<svg width="415px" height="75px" viewBox="0 0 415 75" version="1.1" xmlns="http://www.w3.org/2000/svg" xmlns:xlink="http://www.w3.org/1999/xlink" xmlns:sketch="http://www.bohemiancoding.com/sketch/ns">
    <!-- Generator: Sketch 3.3.3 (12081) - http://www.bohemiancoding.com/sketch -->
    <title>openlearning-white</title>
    <desc>Created with Sketch.</desc>
    <defs>
        <linearGradient x1="50%" y1="100%" x2="50%" y2="13.7915294%" id="linearGradient-1">
            <stop stop-color="#4FBBDD" offset="0%"></stop>
            <stop stop-color="#2077AD" offset="100%"></stop>
        </linearGradient>
        <linearGradient x1="53.6670206%" y1="0%" x2="53.6670208%" y2="84.0158233%" id="linearGradient-2">
            <stop stop-color="#A9D500" offset="0%"></stop>
            <stop stop-color="#3E9B00" offset="100%"></stop>
        </linearGradient>
    </defs>
    <g id="Page-1" stroke="none" stroke-width="1" fill="none" fill-rule="evenodd" sketch:type="MSPage">
        <g id="openlearning-white" sketch:type="MSArtboardGroup">
            <g id="blue-base" sketch:type="MSLayerGroup" transform="translate(2.900000, -20.500000)" stroke="url(#linearGradient-1)" stroke-width="7">
                <circle id="smaller" sketch:type="MSShapeGroup" cx="38.6" cy="38.9" r="25"></circle>
                <circle id="bigger" sketch:type="MSShapeGroup" cx="38.6" cy="38.9" r="38"></circle>
            </g>
            <g id="green-base" sketch:type="MSLayerGroup" transform="translate(2.900000, 19.000000)" stroke="url(#linearGradient-2)" stroke-width="7">
                <circle id="smaller" sketch:type="MSShapeGroup" cx="38.6" cy="38.9" r="25"></circle>
                <circle id="bigger" sketch:type="MSShapeGroup" cx="38.6" cy="38.9" r="38"></circle>
            </g>
            <g id="blue-int-1" sketch:type="MSLayerGroup" transform="translate(4.900000, 30.500000)" fill="#2A8B00">
                <path d="M51.6878712,12.0831365 C53.6874429,10.8329641 55.5208062,9.34168157 57.14725,7.65 L57.14725,7.65 C55.5208062,5.95831843 53.6874429,4.46703588 51.6878712,3.21686347 C49.8024268,5.07429441 47.5756608,6.58621767 45.1102064,7.65 C47.5756608,8.71378233 49.8024268,10.2257056 51.6878712,12.0831365 Z M21.5121288,12.0831365 C19.5125571,10.8329641 17.6791938,9.34168157 16.05275,7.65 C17.6791938,5.95831843 19.5125571,4.46703588 21.5121288,3.21686347 C23.3975732,5.07429441 25.6243392,6.58621767 28.0897936,7.65 C25.6243392,8.71378233 23.3975732,10.2257056 21.5121288,12.0831365 Z" id="Shape" sketch:type="MSShapeGroup"></path>
                <path d="M68.5576198,14.3773815 C70.2836067,12.296479 71.8102284,10.0442552 73.1081947,7.65 L73.1081947,7.65 C71.8102284,5.25574484 70.2836067,3.00352098 68.5576198,0.922618501 C67.5836135,3.31039656 66.3497743,5.56456616 64.8912293,7.65 C66.3497743,9.73543384 67.5836135,11.9896034 68.5576198,14.3773815 Z M4.64238022,14.3773815 C2.91639328,12.296479 1.38977162,10.0442552 0.0918053016,7.65 C1.38977162,5.25574484 2.91639328,3.00352098 4.64238022,0.922618501 C5.61638645,3.31039656 6.85022571,5.56456616 8.30877071,7.65 C6.85022571,9.73543384 5.61638645,11.9896034 4.64238022,14.3773815 Z" id="Shape" sketch:type="MSShapeGroup"></path>
            </g>
            <g id="green-int-1" sketch:type="MSLayerGroup" transform="translate(12.900000, 29.000000)"></g>
            <g id="blue-int-2" sketch:type="MSLayerGroup" transform="translate(13.900000, 21.500000)" fill="#2A8B00">
                <path d="M51.8576441,11.8680425 C53.1445839,9.78681961 54.1711658,7.52759608 54.8919376,5.13582419 L54.8919376,5.13582419 C52.994338,3.47795255 50.9444393,1.99004172 48.7659813,0.695832448 C48.3369519,3.10428919 47.5069055,5.37395408 46.3473534,7.43331582 C48.3344834,8.72203871 50.1806485,10.2096826 51.8576441,11.8680425 Z M3.34235594,11.8680425 C2.05541614,9.78681961 1.02883421,7.52759608 0.308062449,5.13582419 C2.20566199,3.47795255 4.25556067,1.99004172 6.43401637,0.695833812 C6.86304631,3.10429024 7.69309314,5.3739549 8.85264557,7.43331646 C6.865516,8.72203921 5.01935118,10.2096828 3.34235594,11.8680425 Z" id="Shape" sketch:type="MSShapeGroup"></path>
                <path d="M48.7659813,32.6041676 C50.9444379,31.3099593 52.9943373,29.822048 54.8919376,28.1641758 L54.8919376,28.1641758 C54.1711658,25.7724039 53.1445839,23.5131804 51.8576441,21.4319575 C50.1806485,23.0903174 48.3344834,24.5779613 46.3473534,25.8666842 C47.5069055,27.9260459 48.3369519,30.1957108 48.7659813,32.6041676 Z M6.43401866,32.6041676 C4.25556211,31.3099593 2.20566266,29.822048 0.308062449,28.1641758 C1.02883421,25.7724039 2.05541614,23.5131804 3.34235594,21.4319575 C5.01935145,23.0903174 6.86551661,24.5779613 8.85264656,25.8666842 C7.69309446,27.9260459 6.86304805,30.1957108 6.43401866,32.6041676 Z" id="Shape" sketch:type="MSShapeGroup"></path>
            </g>
            <g id="green-int-2" sketch:type="MSLayerGroup" transform="translate(12.900000, 29.000000)"></g>
            <path d="M112.805176,38.3666992 C112.805176,41.2228333 112.324712,43.71524 111.36377,45.8439941 C110.402827,47.9727483 109.041513,49.5976506 107.279785,50.71875 C105.518058,51.8398494 103.46274,52.4003906 101.11377,52.4003906 C98.8181851,52.4003906 96.7828865,51.8365128 95.0078125,50.7087402 C93.2327385,49.5809677 91.8547412,47.9727481 90.8737793,45.8840332 C89.8928174,43.7953183 89.3889975,41.3763158 89.3623047,38.6269531 L89.3623047,36.5249023 C89.3623047,33.722154 89.8494417,31.24643 90.8237305,29.0976562 C91.7980192,26.9488825 93.1760165,25.3039608 94.9577637,24.1628418 C96.7395109,23.0217228 98.7781461,22.4511719 101.07373,22.4511719 C103.409354,22.4511719 105.468009,23.0150497 107.249756,24.1428223 C109.031503,25.2705948 110.402827,26.9055069 111.36377,29.0476074 C112.324712,31.189708 112.805176,33.6821147 112.805176,36.5249023 L112.805176,38.3666992 Z M108.981445,36.4848633 C108.981445,33.0281403 108.287442,30.3755789 106.899414,28.5270996 C105.511386,26.6786203 103.569511,25.7543945 101.07373,25.7543945 C98.6446819,25.7543945 96.7328357,26.6786203 95.3381348,28.5270996 C93.9434338,30.3755789 93.2260744,32.9413898 93.1860352,36.2246094 L93.1860352,38.3666992 C93.1860352,41.7166509 93.8900483,44.3491929 95.2980957,46.2644043 C96.7061431,48.1796157 98.6446817,49.137207 101.11377,49.137207 C103.596204,49.137207 105.51806,48.2330006 106.879395,46.4245605 C108.240729,44.6161205 108.941406,42.0236171 108.981445,38.6469727 L108.981445,36.4848633 Z M123.414551,40.5888672 L123.414551,52 L119.570801,52 L119.570801,22.8515625 L130.321289,22.8515625 C133.511084,22.8515625 136.010163,23.665682 137.818604,25.2939453 C139.627044,26.9222087 140.53125,29.0776233 140.53125,31.7602539 C140.53125,34.5896951 139.647063,36.7684657 137.878662,38.2966309 C136.110261,39.8247961 133.577816,40.5888672 130.28125,40.5888672 L123.414551,40.5888672 Z M123.414551,37.4458008 L130.321289,37.4458008 C132.376638,37.4458008 133.951492,36.9620003 135.045898,35.9943848 C136.140305,35.0267693 136.6875,33.6287526 136.6875,31.800293 C136.6875,30.0652583 136.140305,28.6772513 135.045898,27.6362305 C133.951492,26.5952096 132.450042,26.0546877 130.541504,26.0146484 L123.414551,26.0146484 L123.414551,37.4458008 Z M162.912109,38.5268555 L150.279785,38.5268555 L150.279785,48.8569336 L164.954102,48.8569336 L164.954102,52 L146.436035,52 L146.436035,22.8515625 L164.753906,22.8515625 L164.753906,26.0146484 L150.279785,26.0146484 L150.279785,35.3837891 L162.912109,35.3837891 L162.912109,38.5268555 Z M193.140625,52 L189.276855,52 L174.602539,29.5380859 L174.602539,52 L170.73877,52 L170.73877,22.8515625 L174.602539,22.8515625 L189.316895,45.4135742 L189.316895,22.8515625 L193.140625,22.8515625 L193.140625,52 Z M215.980957,48.8569336 L229.794434,48.8569336 L229.794434,52 L212.117188,52 L212.117188,22.8515625 L215.980957,22.8515625 L215.980957,48.8569336 Z M251.654785,38.5268555 L239.022461,38.5268555 L239.022461,48.8569336 L253.696777,48.8569336 L253.696777,52 L235.178711,52 L235.178711,22.8515625 L253.496582,22.8515625 L253.496582,26.0146484 L239.022461,26.0146484 L239.022461,35.3837891 L251.654785,35.3837891 L251.654785,38.5268555 Z M275.577148,44.3925781 L263.365234,44.3925781 L260.622559,52 L256.658691,52 L267.789551,22.8515625 L271.152832,22.8515625 L282.303711,52 L278.359863,52 L275.577148,44.3925781 Z M264.526367,41.2294922 L274.436035,41.2294922 L269.471191,27.5961914 L264.526367,41.2294922 Z M297.917969,40.2084961 L291.071289,40.2084961 L291.071289,52 L287.20752,52 L287.20752,22.8515625 L296.856934,22.8515625 C300.140153,22.8515625 302.665925,23.5989509 304.434326,25.09375 C306.202727,26.5885491 307.086914,28.7639831 307.086914,31.6201172 C307.086914,33.4352304 306.59644,35.0167576 305.615479,36.3647461 C304.634517,37.7127346 303.269866,38.7203743 301.521484,39.3876953 L308.368164,51.7597656 L308.368164,52 L304.244141,52 L297.917969,40.2084961 Z M291.071289,37.0654297 L296.977051,37.0654297 C298.885589,37.0654297 300.403722,36.5716195 301.531494,35.5839844 C302.659267,34.5963492 303.223145,33.2750734 303.223145,31.6201172 C303.223145,29.8183504 302.685959,28.4370165 301.611572,27.4760742 C300.537185,26.5151319 298.985687,26.0279949 296.957031,26.0146484 L291.071289,26.0146484 L291.071289,37.0654297 Z M335.874023,52 L332.010254,52 L317.335938,29.5380859 L317.335938,52 L313.472168,52 L313.472168,22.8515625 L317.335938,22.8515625 L332.050293,45.4135742 L332.050293,22.8515625 L335.874023,22.8515625 L335.874023,52 Z M347.824707,52 L343.980957,52 L343.980957,22.8515625 L347.824707,22.8515625 L347.824707,52 Z M378.253418,52 L374.389648,52 L359.715332,29.5380859 L359.715332,52 L355.851562,52 L355.851562,22.8515625 L359.715332,22.8515625 L374.429688,45.4135742 L374.429688,22.8515625 L378.253418,22.8515625 L378.253418,52 Z M407.601074,48.1762695 C406.613439,49.5909901 405.235442,50.6486781 403.467041,51.3493652 C401.69864,52.0500523 399.639986,52.4003906 397.291016,52.4003906 C394.915353,52.4003906 392.80665,51.8431859 390.964844,50.7287598 C389.123038,49.6143336 387.698329,48.0294699 386.690674,45.9741211 C385.683019,43.9187723 385.165853,41.5364719 385.13916,38.8271484 L385.13916,36.284668 C385.13916,31.8936955 386.163483,28.4904092 388.212158,26.074707 C390.260834,23.6590048 393.140281,22.4511719 396.850586,22.4511719 C399.89357,22.4511719 402.342601,23.2285892 404.197754,24.7834473 C406.052906,26.3383053 407.187335,28.5437683 407.601074,31.3999023 L403.757324,31.3999023 C403.036617,27.5427867 400.741068,25.6142578 396.870605,25.6142578 C394.294746,25.6142578 392.342861,26.5184643 391.014893,28.3269043 C389.686924,30.1353443 389.016276,32.7545401 389.00293,36.1845703 L389.00293,38.5668945 C389.00293,41.8367677 389.750318,44.4359441 391.245117,46.364502 C392.739916,48.2930598 394.761869,49.2573242 397.311035,49.2573242 C398.752449,49.2573242 400.013666,49.0971696 401.094727,48.7768555 C402.175787,48.4565414 403.069983,47.9160194 403.777344,47.1552734 L403.777344,40.6088867 L397.030762,40.6088867 L397.030762,37.4858398 L407.601074,37.4858398 L407.601074,48.1762695 Z" id="OPEN-LEARNING" fill="#FFFFFF" sketch:type="MSShapeGroup"></path>
        </g>
    </g>
</svg>