<?xml version="1.0" encoding="UTF-8" standalone="no"?>
<svg width="394px" height="75px" viewBox="0 0 394 75" version="1.1" xmlns="http://www.w3.org/2000/svg" xmlns:xlink="http://www.w3.org/1999/xlink" xmlns:sketch="http://www.bohemiancoding.com/sketch/ns">
    <!-- Generator: Sketch 3.3.3 (12081) - http://www.bohemiancoding.com/sketch -->
    <title>openagency-black copy</title>
    <desc>Created with Sketch.</desc>
    <defs>
        <linearGradient x1="50%" y1="100%" x2="50%" y2="13.7915294%" id="linearGradient-1">
            <stop stop-color="#4FBBDD" offset="0%"></stop>
            <stop stop-color="#2077AD" offset="100%"></stop>
        </linearGradient>
        <linearGradient x1="53.6670206%" y1="0%" x2="53.6670208%" y2="84.0158233%" id="linearGradient-2">
            <stop stop-color="#A9D500" offset="0%"></stop>
            <stop stop-color="#3E9B00" offset="100%"></stop>
        </linearGradient>
    </defs>
    <g id="Page-1" stroke="none" stroke-width="1" fill="none" fill-rule="evenodd" sketch:type="MSPage">
        <g id="openagency-black-copy" sketch:type="MSArtboardGroup">
            <g id="blue-base" sketch:type="MSLayerGroup" transform="translate(2.900000, -20.500000)" stroke="url(#linearGradient-1)" stroke-width="7">
                <circle id="smaller" sketch:type="MSShapeGroup" cx="38.6" cy="38.9" r="25"></circle>
                <circle id="bigger" sketch:type="MSShapeGroup" cx="38.6" cy="38.9" r="38"></circle>
            </g>
            <g id="green-base" sketch:type="MSLayerGroup" transform="translate(2.900000, 19.000000)" stroke="url(#linearGradient-2)" stroke-width="7">
                <circle id="smaller" sketch:type="MSShapeGroup" cx="38.6" cy="38.9" r="25"></circle>
                <circle id="bigger" sketch:type="MSShapeGroup" cx="38.6" cy="38.9" r="38"></circle>
            </g>
            <g id="blue-int-1" sketch:type="MSLayerGroup" transform="translate(4.900000, 30.500000)" fill="#2A8B00">
                <path d="M51.6878712,12.0831365 C53.6874429,10.8329641 55.5208062,9.34168157 57.14725,7.65 L57.14725,7.65 C55.5208062,5.95831843 53.6874429,4.46703588 51.6878712,3.21686347 C49.8024268,5.07429441 47.5756608,6.58621767 45.1102064,7.65 C47.5756608,8.71378233 49.8024268,10.2257056 51.6878712,12.0831365 Z M21.5121288,12.0831365 C19.5125571,10.8329641 17.6791938,9.34168157 16.05275,7.65 C17.6791938,5.95831843 19.5125571,4.46703588 21.5121288,3.21686347 C23.3975732,5.07429441 25.6243392,6.58621767 28.0897936,7.65 C25.6243392,8.71378233 23.3975732,10.2257056 21.5121288,12.0831365 Z" id="Shape" sketch:type="MSShapeGroup"></path>
                <path d="M68.5576198,14.3773815 C70.2836067,12.296479 71.8102284,10.0442552 73.1081947,7.65 L73.1081947,7.65 C71.8102284,5.25574484 70.2836067,3.00352098 68.5576198,0.922618501 C67.5836135,3.31039656 66.3497743,5.56456616 64.8912293,7.65 C66.3497743,9.73543384 67.5836135,11.9896034 68.5576198,14.3773815 Z M4.64238022,14.3773815 C2.91639328,12.296479 1.38977162,10.0442552 0.0918053016,7.65 C1.38977162,5.25574484 2.91639328,3.00352098 4.64238022,0.922618501 C5.61638645,3.31039656 6.85022571,5.56456616 8.30877071,7.65 C6.85022571,9.73543384 5.61638645,11.9896034 4.64238022,14.3773815 Z" id="Shape" sketch:type="MSShapeGroup"></path>
            </g>
            <g id="green-int-1" sketch:type="MSLayerGroup" transform="translate(12.900000, 29.000000)"></g>
            <g id="blue-int-2" sketch:type="MSLayerGroup" transform="translate(13.900000, 21.500000)" fill="#2A8B00">
                <path d="M51.8576441,11.8680425 C53.1445839,9.78681961 54.1711658,7.52759608 54.8919376,5.13582419 L54.8919376,5.13582419 C52.994338,3.47795255 50.9444393,1.99004172 48.7659813,0.695832448 C48.3369519,3.10428919 47.5069055,5.37395408 46.3473534,7.43331582 C48.3344834,8.72203871 50.1806485,10.2096826 51.8576441,11.8680425 Z M3.34235594,11.8680425 C2.05541614,9.78681961 1.02883421,7.52759608 0.308062449,5.13582419 C2.20566199,3.47795255 4.25556067,1.99004172 6.43401637,0.695833812 C6.86304631,3.10429024 7.69309314,5.3739549 8.85264557,7.43331646 C6.865516,8.72203921 5.01935118,10.2096828 3.34235594,11.8680425 Z" id="Shape" sketch:type="MSShapeGroup"></path>
                <path d="M48.7659813,32.6041676 C50.9444379,31.3099593 52.9943373,29.822048 54.8919376,28.1641758 L54.8919376,28.1641758 C54.1711658,25.7724039 53.1445839,23.5131804 51.8576441,21.4319575 C50.1806485,23.0903174 48.3344834,24.5779613 46.3473534,25.8666842 C47.5069055,27.9260459 48.3369519,30.1957108 48.7659813,32.6041676 Z M6.43401866,32.6041676 C4.25556211,31.3099593 2.20566266,29.822048 0.308062449,28.1641758 C1.02883421,25.7724039 2.05541614,23.5131804 3.34235594,21.4319575 C5.01935145,23.0903174 6.86551661,24.5779613 8.85264656,25.8666842 C7.69309446,27.9260459 6.86304805,30.1957108 6.43401866,32.6041676 Z" id="Shape" sketch:type="MSShapeGroup"></path>
            </g>
            <g id="green-int-2" sketch:type="MSLayerGroup" transform="translate(12.900000, 29.000000)"></g>
            <path d="M126.802872,38.3666992 C126.802872,41.2228333 126.322408,43.71524 125.361465,45.8439941 C124.400523,47.9727483 123.039209,49.5976506 121.277481,50.71875 C119.515754,51.8398494 117.460436,52.4003906 115.111465,52.4003906 C112.815881,52.4003906 110.780582,51.8365128 109.005508,50.7087402 C107.230434,49.5809677 105.852437,47.9727481 104.871475,45.8840332 C103.890513,43.7953183 103.386693,41.3763158 103.360001,38.6269531 L103.360001,36.5249023 C103.360001,33.722154 103.847138,31.24643 104.821426,29.0976562 C105.795715,26.9488825 107.173712,25.3039608 108.95546,24.1628418 C110.737207,23.0217228 112.775842,22.4511719 115.071426,22.4511719 C117.40705,22.4511719 119.465705,23.0150497 121.247452,24.1428223 C123.029199,25.2705948 124.400523,26.9055069 125.361465,29.0476074 C126.322408,31.189708 126.802872,33.6821147 126.802872,36.5249023 L126.802872,38.3666992 Z M122.979141,36.4848633 C122.979141,33.0281403 122.285138,30.3755789 120.89711,28.5270996 C119.509082,26.6786203 117.567207,25.7543945 115.071426,25.7543945 C112.642378,25.7543945 110.730532,26.6786203 109.335831,28.5270996 C107.94113,30.3755789 107.22377,32.9413898 107.183731,36.2246094 L107.183731,38.3666992 C107.183731,41.7166509 107.887744,44.3491929 109.295792,46.2644043 C110.703839,48.1796157 112.642378,49.137207 115.111465,49.137207 C117.5939,49.137207 119.515756,48.2330006 120.87709,46.4245605 C122.238425,44.6161205 122.939102,42.0236171 122.979141,38.6469727 L122.979141,36.4848633 Z M136.412247,40.5888672 L136.412247,52 L132.568497,52 L132.568497,22.8515625 L143.318985,22.8515625 C146.50878,22.8515625 149.007859,23.665682 150.816299,25.2939453 C152.624739,26.9222087 153.528946,29.0776233 153.528946,31.7602539 C153.528946,34.5896951 152.644759,36.7684657 150.876358,38.2966309 C149.107957,39.8247961 146.575512,40.5888672 143.278946,40.5888672 L136.412247,40.5888672 Z M136.412247,37.4458008 L143.318985,37.4458008 C145.374334,37.4458008 146.949188,36.9620003 148.043594,35.9943848 C149.138001,35.0267693 149.685196,33.6287526 149.685196,31.800293 C149.685196,30.0652583 149.138001,28.6772513 148.043594,27.6362305 C146.949188,26.5952096 145.447738,26.0546877 143.5392,26.0146484 L136.412247,26.0146484 L136.412247,37.4458008 Z M174.909805,38.5268555 L162.277481,38.5268555 L162.277481,48.8569336 L176.951797,48.8569336 L176.951797,52 L158.433731,52 L158.433731,22.8515625 L176.751602,22.8515625 L176.751602,26.0146484 L162.277481,26.0146484 L162.277481,35.3837891 L174.909805,35.3837891 L174.909805,38.5268555 Z M204.138321,52 L200.274551,52 L185.600235,29.5380859 L185.600235,52 L181.736465,52 L181.736465,22.8515625 L185.600235,22.8515625 L200.31459,45.4135742 L200.31459,22.8515625 L204.138321,22.8515625 L204.138321,52 Z M237.210587,44.3925781 L224.998672,44.3925781 L222.255997,52 L218.29213,52 L229.422989,22.8515625 L232.78627,22.8515625 L243.937149,52 L239.993301,52 L237.210587,44.3925781 Z M226.159805,41.2294922 L236.069473,41.2294922 L231.10463,27.5961914 L226.159805,41.2294922 Z M269.161758,48.1762695 C268.174123,49.5909901 266.796126,50.6486781 265.027725,51.3493652 C263.259324,52.0500523 261.20067,52.4003906 258.8517,52.4003906 C256.476037,52.4003906 254.367334,51.8431859 252.525528,50.7287598 C250.683722,49.6143336 249.259013,48.0294699 248.251358,45.9741211 C247.243703,43.9187723 246.726537,41.5364719 246.699844,38.8271484 L246.699844,36.284668 C246.699844,31.8936955 247.724167,28.4904092 249.772842,26.074707 C251.821518,23.6590048 254.700965,22.4511719 258.41127,22.4511719 C261.454254,22.4511719 263.903286,23.2285892 265.758438,24.7834473 C267.613591,26.3383053 268.748019,28.5437683 269.161758,31.3999023 L265.318008,31.3999023 C264.597302,27.5427867 262.301752,25.6142578 258.43129,25.6142578 C255.85543,25.6142578 253.903546,26.5184643 252.575577,28.3269043 C251.247608,30.1353443 250.57696,32.7545401 250.563614,36.1845703 L250.563614,38.5668945 C250.563614,41.8367677 251.311002,44.4359441 252.805801,46.364502 C254.300601,48.2930598 256.322553,49.2573242 258.871719,49.2573242 C260.313133,49.2573242 261.574351,49.0971696 262.655411,48.7768555 C263.736471,48.4565414 264.630668,47.9160194 265.338028,47.1552734 L265.338028,40.6088867 L258.591446,40.6088867 L258.591446,37.4858398 L269.161758,37.4858398 L269.161758,48.1762695 Z M292.044083,38.5268555 L279.411758,38.5268555 L279.411758,48.8569336 L294.086075,48.8569336 L294.086075,52 L275.568008,52 L275.568008,22.8515625 L293.88588,22.8515625 L293.88588,26.0146484 L279.411758,26.0146484 L279.411758,35.3837891 L292.044083,35.3837891 L292.044083,38.5268555 Z M321.272598,52 L317.408829,52 L302.734512,29.5380859 L302.734512,52 L298.870743,52 L298.870743,22.8515625 L302.734512,22.8515625 L317.448868,45.4135742 L317.448868,22.8515625 L321.272598,22.8515625 L321.272598,52 Z M349.540176,42.7509766 C349.179823,45.8339998 348.042058,48.2129636 346.126846,49.8879395 C344.211635,51.5629153 341.665843,52.4003906 338.489395,52.4003906 C335.046019,52.4003906 332.286687,51.1658652 330.211319,48.6967773 C328.135951,46.2276895 327.098282,42.9244999 327.098282,38.7871094 L327.098282,35.984375 C327.098282,33.2750516 327.582082,30.8927512 328.549698,28.8374023 C329.517313,26.7820535 330.888638,25.2038629 332.663712,24.1027832 C334.438786,23.0017035 336.494104,22.4511719 338.829727,22.4511719 C341.926097,22.4511719 344.408494,23.3153397 346.276993,25.0437012 C348.145492,26.7720627 349.233209,29.1643727 349.540176,32.2207031 L345.676407,32.2207031 C345.342746,29.8984259 344.618714,28.2168021 343.504288,27.1757812 C342.389862,26.1347604 340.83169,25.6142578 338.829727,25.6142578 C336.373986,25.6142578 334.448793,26.5218008 333.054092,28.3369141 C331.659391,30.1520273 330.962051,32.734521 330.962051,36.0844727 L330.962051,38.9072266 C330.962051,42.0703283 331.622689,44.5860909 332.943985,46.4545898 C334.265281,48.3230888 336.113732,49.2573242 338.489395,49.2573242 C340.624822,49.2573242 342.263071,48.7735237 343.40419,47.8059082 C344.545309,46.8382927 345.302707,45.1533323 345.676407,42.7509766 L349.540176,42.7509766 Z M363.673965,37.4858398 L371.281387,22.8515625 L375.645645,22.8515625 L365.59584,41.1293945 L365.59584,52 L361.75209,52 L361.75209,41.1293945 L351.702286,22.8515625 L356.106583,22.8515625 L363.673965,37.4858398 Z" id="OPEN-AGENCY" fill="#000000" sketch:type="MSShapeGroup"></path>
        </g>
    </g>
</svg>